<svg xmlns="http://www.w3.org/2000/svg" xmlns:xlink="http://www.w3.org/1999/xlink" width="512" zoomAndPan="magnify" viewBox="0 0 384 383.999986" height="512" preserveAspectRatio="xMidYMid meet" version="1.0"><defs><clipPath id="541d359b5c"><path d="M 28.5 28.5 L 355.5 28.5 L 355.5 355.5 L 28.5 355.5 Z M 28.5 28.5 " clip-rule="nonzero"/></clipPath><clipPath id="b538aed197"><path d="M 192 28.5 C 101.703125 28.5 28.5 101.703125 28.5 192 C 28.5 282.296875 101.703125 355.5 192 355.5 C 282.296875 355.5 355.5 282.296875 355.5 192 C 355.5 101.703125 282.296875 28.5 192 28.5 Z M 192 28.5 " clip-rule="nonzero"/></clipPath></defs><g clip-path="url(#541d359b5c)"><g clip-path="url(#b538aed197)"><path stroke-linecap="butt" transform="matrix(0.75, 0, 0, 0.75, 28.500005, 28.499998)" fill="none" stroke-linejoin="miter" d="M 218.000025 0.00000300833 C 97.604174 0.00000300833 -0.00000659167 97.604184 -0.00000659167 218.000034 C -0.00000659167 338.395885 97.604174 436.000065 218.000025 436.000065 C 338.395875 436.000065 436.000056 338.395885 436.000056 218.000034 C 436.000056 97.604184 338.395875 0.00000300833 218.000025 0.00000300833 Z M 218.000025 0.00000300833 " stroke="#00bf63" stroke-width="40" stroke-opacity="1" stroke-miterlimit="4"/></g></g></svg>