<svg xmlns="http://www.w3.org/2000/svg" xmlns:xlink="http://www.w3.org/1999/xlink" width="512" zoomAndPan="magnify" viewBox="0 0 384 383.999986" height="512" preserveAspectRatio="xMidYMid meet" version="1.0"><defs><clipPath id="8a26aa747c"><path d="M 4.5 27 L 380 27 L 380 356.0625 L 4.5 356.0625 Z M 4.5 27 " clip-rule="nonzero"/></clipPath><clipPath id="6315d6e45a"><path d="M 19.367188 80.328125 C -11.039062 130.421875 10.382812 179.179688 37.300781 205.054688 L 194.699219 356.0625 L 348.773438 205.59375 C 373.808594 177.757812 383.40625 148.230469 378.074219 115.351562 C 370.714844 69.867188 333.234375 34.582031 286.933594 29.542969 C 258.535156 26.484375 231.101562 34.519531 209.695312 52.3125 C 203.929688 57.097656 198.78125 62.449219 194.292969 68.265625 C 188.964844 61.644531 182.71875 55.585938 175.65625 50.214844 C 151.035156 31.503906 119.699219 24.078125 89.59375 29.855469 C 61.082031 35.363281 35.492188 53.753906 19.367188 80.328125 Z M 19.367188 80.328125 " clip-rule="nonzero"/></clipPath></defs><g clip-path="url(#8a26aa747c)"><g clip-path="url(#6315d6e45a)"><path fill="#e91c24" d="M 4.5 27.9375 L 380.050781 27.9375 L 380.050781 356.0625 L 4.5 356.0625 Z M 4.5 27.9375 " fill-opacity="1" fill-rule="nonzero"/></g></g></svg>