<svg xmlns="http://www.w3.org/2000/svg" xmlns:xlink="http://www.w3.org/1999/xlink" width="512" zoomAndPan="magnify" viewBox="0 0 384 383.999986" height="512" preserveAspectRatio="xMidYMid meet" version="1.0"><defs><clipPath id="665d831753"><path d="M 4.5 27 L 380 27 L 380 356.0625 L 4.5 356.0625 Z M 4.5 27 " clip-rule="nonzero"/></clipPath><clipPath id="bda1299211"><path d="M 19.367188 80.328125 C -11.039062 130.421875 10.382812 179.179688 37.300781 205.054688 L 194.699219 356.0625 L 348.773438 205.59375 C 373.808594 177.757812 383.40625 148.230469 378.074219 115.351562 C 370.714844 69.867188 333.234375 34.582031 286.933594 29.542969 C 258.535156 26.484375 231.101562 34.519531 209.695312 52.3125 C 203.929688 57.097656 198.78125 62.449219 194.292969 68.265625 C 188.964844 61.644531 182.71875 55.585938 175.65625 50.214844 C 151.035156 31.503906 119.699219 24.078125 89.59375 29.855469 C 61.082031 35.363281 35.492188 53.753906 19.367188 80.328125 Z M 19.367188 80.328125 " clip-rule="nonzero"/></clipPath><clipPath id="7587ca4175"><path d="M 42 60 L 342 60 L 342 323.25 L 42 323.25 Z M 42 60 " clip-rule="nonzero"/></clipPath><clipPath id="875aec4771"><path d="M 53.894531 102.664062 C 29.570312 142.738281 46.707031 181.742188 68.242188 202.445312 L 194.15625 323.25 L 317.417969 202.875 C 337.445312 180.605469 345.125 156.984375 340.859375 130.679688 C 334.96875 94.292969 304.984375 66.0625 267.945312 62.03125 C 245.226562 59.585938 223.28125 66.015625 206.15625 80.25 C 201.542969 84.078125 197.425781 88.359375 193.832031 93.011719 C 189.574219 87.714844 184.578125 82.867188 178.925781 78.574219 C 159.230469 63.605469 134.15625 57.660156 110.074219 62.28125 C 87.265625 66.6875 66.792969 81.402344 53.894531 102.664062 Z M 53.894531 102.664062 " clip-rule="nonzero"/></clipPath></defs><g clip-path="url(#665d831753)"><g clip-path="url(#bda1299211)"><path fill="#e91c24" d="M 4.5 27.9375 L 380.050781 27.9375 L 380.050781 356.0625 L 4.5 356.0625 Z M 4.5 27.9375 " fill-opacity="1" fill-rule="nonzero"/></g></g><g clip-path="url(#7587ca4175)"><g clip-path="url(#875aec4771)"><path fill="#ffffff" d="M 42 60.75 L 342.4375 60.75 L 342.4375 323.25 L 42 323.25 Z M 42 60.75 " fill-opacity="1" fill-rule="nonzero"/></g></g></svg>