<svg xmlns="http://www.w3.org/2000/svg" xmlns:xlink="http://www.w3.org/1999/xlink" width="512" zoomAndPan="magnify" viewBox="0 0 384 383.999986" height="512" preserveAspectRatio="xMidYMid meet" version="1.0"><defs><clipPath id="4edc55b9e5"><path d="M 4.5 27.9375 L 379.5 27.9375 L 379.5 356.0625 L 4.5 356.0625 Z M 4.5 27.9375 " clip-rule="nonzero"/></clipPath><clipPath id="acad5538c2"><path d="M 19.367188 80.328125 C -11.039062 130.421875 10.382812 179.179688 37.300781 205.054688 L 194.699219 356.0625 L 348.773438 205.59375 C 373.808594 177.757812 383.40625 148.230469 378.074219 115.351562 C 370.714844 69.867188 333.234375 34.582031 286.933594 29.542969 C 258.535156 26.484375 231.101562 34.519531 209.695312 52.3125 C 203.929688 57.097656 198.78125 62.449219 194.292969 68.265625 C 188.964844 61.644531 182.71875 55.585938 175.65625 50.214844 C 151.035156 31.503906 119.699219 24.078125 89.59375 29.855469 C 61.082031 35.363281 35.492188 53.753906 19.367188 80.328125 Z M 19.367188 80.328125 " clip-rule="nonzero"/></clipPath></defs><g clip-path="url(#4edc55b9e5)"><g clip-path="url(#acad5538c2)"><path stroke-linecap="butt" transform="matrix(0.75, 0, 0, 0.75, 4.500007, 27.937498)" fill="none" stroke-linejoin="miter" d="M 19.822908 69.854171 C -20.718759 136.645838 7.843741 201.656256 43.734367 236.156257 L 253.598953 437.50001 L 459.031248 236.875007 C 492.411457 199.760423 505.208332 160.39063 498.098957 116.552088 C 488.286457 55.906254 438.312498 8.859378 376.578122 2.140628 C 338.713538 -1.937497 302.135412 8.776045 273.593745 32.500003 C 265.906245 38.880212 259.041661 46.015629 253.057286 53.770837 C 245.95312 44.942712 237.624994 36.864587 228.208328 29.703128 C 195.385411 4.755211 153.598952 -5.14583 113.458326 2.557295 C 75.4427 9.901045 41.322908 34.421878 19.822908 69.854171 Z M 19.822908 69.854171 " stroke="#ff914d" stroke-width="60" stroke-opacity="1" stroke-miterlimit="4"/><path fill="#e91c24" d="M 21.273438 108.789062 C 20.171875 112.511719 19.347656 116.257812 18.800781 120.03125 L -7.921875 116.160156 C -7.1875 111.101562 -6.085938 106.085938 -4.613281 101.117188 Z M 18 131.503906 C 18.019531 135.324219 18.320312 139.148438 18.902344 142.976562 L -7.789062 147.035156 C -8.570312 141.90625 -8.972656 136.773438 -9 131.636719 Z M 21.453125 154.304688 C 22.5625 158.023438 23.933594 161.695312 25.5625 165.324219 L 0.925781 176.378906 C -1.183594 171.667969 -2.964844 166.886719 -4.417969 162.035156 Z M 31.058594 175.777344 C 33.113281 179.164062 35.367188 182.414062 37.816406 185.53125 L 16.585938 202.214844 C 13.464844 198.242188 10.597656 194.101562 7.980469 189.789062 Z M 45.703125 194.390625 C 46.019531 194.703125 46.335938 195.015625 46.65625 195.324219 L 55.246094 203.566406 L 36.554688 223.046875 L 27.945312 214.789062 C 27.53125 214.386719 27.117188 213.984375 26.703125 213.578125 Z M 64.988281 212.910156 L 74.730469 222.257812 L 56.039062 241.738281 L 46.296875 232.394531 Z M 84.472656 231.601562 L 94.214844 240.949219 L 75.523438 260.433594 L 65.78125 251.085938 Z M 103.957031 250.296875 L 113.699219 259.640625 L 95.003906 279.125 L 85.261719 269.777344 Z M 123.4375 268.988281 L 133.179688 278.335938 L 114.488281 297.816406 L 104.746094 288.472656 Z M 142.921875 287.679688 L 152.664062 297.027344 L 133.972656 316.507812 L 124.230469 307.164062 Z M 162.40625 306.371094 L 172.148438 315.71875 L 153.453125 335.203125 L 143.714844 325.855469 Z M 181.890625 325.066406 L 191.628906 334.410156 L 172.9375 353.894531 L 163.195312 344.546875 Z M 201.371094 343.757812 L 204.042969 346.320312 L 194.699219 356.0625 L 185.265625 346.402344 L 192.273438 339.558594 L 211.140625 358.875 L 194.78125 374.851562 L 182.679688 363.242188 Z M 201.933594 330.125 L 211.589844 320.695312 L 230.457031 340.011719 L 220.796875 349.445312 Z M 221.25 311.261719 L 230.90625 301.832031 L 249.773438 321.148438 L 240.113281 330.578125 Z M 240.566406 292.398438 L 250.222656 282.964844 L 269.089844 302.28125 L 259.429688 311.714844 Z M 259.882812 273.535156 L 269.542969 264.101562 L 288.40625 283.417969 L 278.746094 292.851562 Z M 279.199219 254.667969 L 288.859375 245.238281 L 307.722656 264.554688 L 298.0625 273.984375 Z M 298.515625 235.804688 L 308.175781 226.371094 L 327.039062 245.6875 L 317.378906 255.121094 Z M 317.832031 216.941406 L 327.492188 207.507812 L 346.355469 226.824219 L 336.695312 236.257812 Z M 337.148438 198.074219 L 339.339844 195.9375 L 348.773438 205.59375 L 338.734375 196.566406 C 340.929688 194.128906 342.988281 191.679688 344.914062 189.222656 L 366.164062 205.882812 C 363.863281 208.816406 361.410156 211.730469 358.808594 214.621094 L 358.515625 214.949219 L 356.015625 217.390625 Z M 351.910156 179.335938 C 354.082031 175.894531 356.003906 172.429688 357.667969 168.945312 L 382.03125 180.578125 C 379.910156 185.023438 377.476562 189.417969 374.734375 193.757812 Z M 362.003906 158.09375 C 363.203125 154.390625 364.128906 150.640625 364.789062 146.84375 L 391.390625 151.457031 C 390.515625 156.503906 389.285156 161.488281 387.695312 166.402344 Z M 365.957031 135.320312 C 366.078125 131.484375 365.941406 127.582031 365.550781 123.617188 L 392.417969 120.953125 C 392.925781 126.089844 393.101562 131.164062 392.945312 136.171875 Z M 363.65625 111.914062 C 362.785156 108.109375 361.660156 104.375 360.289062 100.71875 L 385.570312 91.234375 C 387.363281 96.019531 388.832031 100.902344 389.972656 105.878906 Z M 355.460938 90.066406 C 353.613281 86.617188 351.542969 83.300781 349.25 80.113281 L 371.167969 64.34375 C 374.15625 68.5 376.855469 72.820312 379.261719 77.316406 Z M 341.789062 71.050781 C 339.105469 68.191406 336.246094 65.519531 333.207031 63.027344 L 350.335938 42.15625 C 354.273438 45.386719 357.988281 48.859375 361.46875 52.566406 Z M 323.65625 56.171875 C 320.324219 54.09375 316.875 52.238281 313.304688 50.609375 L 324.519531 26.046875 C 329.148438 28.160156 333.625 30.566406 337.945312 33.261719 Z M 302.335938 46.4375 C 298.589844 45.285156 294.78125 44.378906 290.910156 43.71875 L 295.445312 17.105469 C 300.46875 17.960938 305.410156 19.136719 310.273438 20.632812 Z M 279.160156 42.488281 C 275.199219 42.324219 271.273438 42.402344 267.375 42.730469 L 265.121094 15.824219 C 270.144531 15.402344 275.203125 15.300781 280.292969 15.515625 Z M 255.757812 44.464844 C 251.921875 45.292969 248.175781 46.371094 244.511719 47.691406 L 235.351562 22.292969 C 240.140625 20.566406 245.035156 19.160156 250.039062 18.078125 Z M 233.8125 52.382812 C 230.359375 54.183594 227.035156 56.210938 223.84375 58.460938 L 208.273438 36.402344 C 212.453125 33.453125 216.808594 30.796875 221.335938 28.4375 Z M 214.726562 65.847656 C 211.859375 68.503906 209.1875 71.335938 206.710938 74.339844 L 185.875 57.167969 C 189.121094 53.230469 192.621094 49.523438 196.375 46.042969 Z M 177.839844 70.0625 C 175.101562 67.277344 172.171875 64.648438 169.039062 62.167969 L 185.804688 41 C 189.8125 44.175781 193.574219 47.554688 197.097656 51.136719 Z M 159.304688 55.386719 C 155.929688 53.328125 152.4375 51.488281 148.835938 49.867188 L 159.933594 25.25 C 164.550781 27.332031 169.019531 29.6875 173.347656 32.324219 Z M 137.773438 45.679688 C 134 44.511719 130.171875 43.585938 126.289062 42.894531 L 131.007812 16.3125 C 135.992188 17.195312 140.90625 18.386719 145.75 19.882812 Z M 114.554688 41.558594 C 110.613281 41.359375 106.679688 41.40625 102.753906 41.699219 L 100.734375 14.777344 C 105.789062 14.398438 110.851562 14.335938 115.925781 14.59375 Z M 91.105469 43.320312 C 87.324219 44.101562 83.59375 45.148438 79.910156 46.457031 L 70.847656 21.023438 C 75.707031 19.292969 80.636719 17.910156 85.636719 16.878906 Z M 69.191406 51.113281 C 65.722656 52.902344 62.363281 54.917969 59.109375 57.167969 L 43.757812 34.960938 C 47.964844 32.050781 52.320312 29.433594 56.816406 27.117188 Z M 49.824219 64.488281 C 46.890625 67.113281 44.105469 69.921875 41.480469 72.910156 L 21.195312 55.089844 C 24.539062 51.285156 28.085938 47.707031 31.832031 44.355469 Z M 34.164062 82.304688 C 33.03125 83.945312 31.945312 85.621094 30.910156 87.332031 C 28.796875 90.808594 26.945312 94.316406 25.351562 97.855469 L 0.734375 86.765625 C 2.78125 82.21875 5.144531 77.742188 7.824219 73.328125 C 9.132812 71.167969 10.503906 69.054688 11.929688 66.984375 Z M 34.164062 82.304688 " fill-opacity="1" fill-rule="nonzero"/></g></g></svg>